<?xml version="1.0" standalone="no"?>
<!DOCTYPE svg PUBLIC "-//W3C//DTD SVG 20010904//EN"
 "http://www.w3.org/TR/2001/REC-SVG-20010904/DTD/svg10.dtd">
<svg version="1.0" xmlns="http://www.w3.org/2000/svg"
 width="218.000000pt" height="218.000000pt" viewBox="0 0 218.000000 218.000000"
 preserveAspectRatio="xMidYMid meet">
<metadata>
Created by potrace 1.11, written by Peter Selinger 2001-2013
</metadata>
<g transform="translate(0.000000,218.000000) scale(0.100000,-0.100000)"
fill="#000000" stroke="none">
<path d="M917 2165 c-294 -50 -560 -223 -724 -473 -71 -108 -114 -206 -151
-341 -22 -85 -25 -116 -25 -261 0 -145 3 -176 25 -261 37 -135 80 -233 151
-341 234 -355 655 -541 1073 -473 300 49 564 219 731 473 71 108 114 206 151
341 22 85 25 116 25 261 0 145 -3 176 -25 261 -37 135 -80 233 -151 341 -234
356 -661 543 -1080 473z"/>
</g>
</svg>
